<svg id="Layer_1" data-name="Layer 1" xmlns="http://www.w3.org/2000/svg" xmlns:xlink="http://www.w3.org/1999/xlink" viewBox="0 0 40.87 48"><defs><style>.cls-1{fill:url(#linear-gradient);}.cls-2{fill:url(#linear-gradient-2);}.cls-3{fill:url(#Sky);}.cls-4{fill:url(#Sky-2);}</style><linearGradient id="linear-gradient" x1="46.14" y1="24.02" x2="1.02" y2="24.02" gradientUnits="userSpaceOnUse"><stop offset="0" stop-color="#cce0f4"/><stop offset="0.08" stop-color="#c3dcf2"/><stop offset="0.21" stop-color="#a9d2ee"/><stop offset="0.37" stop-color="#80c2e7"/><stop offset="0.57" stop-color="#47acde"/><stop offset="0.69" stop-color="#1e9cd7"/><stop offset="0.89" stop-color="#0075be"/><stop offset="0.99" stop-color="#005b97"/></linearGradient><linearGradient id="linear-gradient-2" x1="46.14" y1="23.97" x2="1.02" y2="23.97" xlink:href="#linear-gradient"/><linearGradient id="Sky" x1="-10.79" y1="9.43" x2="47.51" y2="9.43" gradientUnits="userSpaceOnUse"><stop offset="0" stop-color="#cce0f4"/><stop offset="0.06" stop-color="#c3dcf2"/><stop offset="0.17" stop-color="#a9d2ee"/><stop offset="0.31" stop-color="#80c2e7"/><stop offset="0.46" stop-color="#47acde"/><stop offset="0.57" stop-color="#1e9cd7"/><stop offset="0.87" stop-color="#0075be"/><stop offset="0.99" stop-color="#005b97"/></linearGradient><linearGradient id="Sky-2" x1="-10.79" y1="38.56" x2="47.51" y2="38.56" xlink:href="#Sky"/></defs><path class="cls-1" d="M18.15,46a23.87,23.87,0,0,1,0-44L17,2.79a11.83,11.83,0,0,0-5.35,8.57A8.28,8.28,0,0,0,16,20a10.07,10.07,0,0,0,1.54.69,10.63,10.63,0,0,0-.44,2H11.73a2.53,2.53,0,1,0,0,2.67H17.1a10.45,10.45,0,0,0,.47,2A9.18,9.18,0,0,0,13.8,29.8,8.17,8.17,0,0,0,11.6,35a10.83,10.83,0,0,0,3,8.11,13.81,13.81,0,0,0,3.23,2.61C17.94,45.81,18.1,45.85,18.15,46Z" transform="translate(-3.57)"/><path class="cls-2" d="M26.9,22.05a1.9,1.9,0,0,0-1.73,1.1H11.29a1.9,1.9,0,0,0-1.73-1.1,1.92,1.92,0,1,0,0,3.84,1.89,1.89,0,0,0,1.73-1.09H25.17a1.89,1.89,0,0,0,1.73,1.09,1.92,1.92,0,1,0,0-3.84ZM9.56,24.8a.83.83,0,1,1,.82-.83A.82.82,0,0,1,9.56,24.8Zm17.34,0a.83.83,0,1,1,.82-.83A.82.82,0,0,1,26.9,24.8Z" transform="translate(-3.57)"/><path class="cls-3" d="M27.64,0a24.86,24.86,0,0,1,8,1.44,23.53,23.53,0,0,1,7,4c.55.45,1.09.9,1.6,1.39.23.23.21.37,0,.58-.89.87-1.77,1.75-2.65,2.63l-6.22,6.24c-.21.22-.36.23-.58,0A10.24,10.24,0,0,0,29,13.46a10.65,10.65,0,0,0-10.56,5.1.45.45,0,0,1-.66.23A6.89,6.89,0,0,1,13.33,13a9.09,9.09,0,0,1,2.29-7.58,15.57,15.57,0,0,1,10-5.27c.35,0,.71-.07,1.06-.1S27.38,0,27.64,0Z" transform="translate(-3.57)"/><path class="cls-4" d="M27.46,48a16.13,16.13,0,0,1-11-4.49,9.89,9.89,0,0,1-3.1-5.5A8.26,8.26,0,0,1,15,31.12a6.52,6.52,0,0,1,2.9-2c.24-.1.35,0,.47.19a10.64,10.64,0,0,0,16.08,2.74c.71-.59.7-.58,1.35.08L42.64,39c.55.55,1.09,1.11,1.64,1.65.22.2.19.34,0,.54a25.73,25.73,0,0,1-4.7,3.54,23.91,23.91,0,0,1-7.52,2.81A27.35,27.35,0,0,1,27.46,48Z" transform="translate(-3.57)"/></svg>